# xmcd
#
# Track frame offsets:
#	150
#	12978
#	31803
#	48397
#	60200
#	86077
#	103178
#	124855
#	133642
#	149645
#	169532
#	192672
#
# Disc length: 2727 seconds
#
# Revision: 0
# Processed by: cddbd v1.5.1PL0 Copyright (c) Steve Scherf et al.
# Submitted via: dBpowerAMP V4.0
#
DISCID=a60aa50c
DTITLE=Hillbilly Voodoo Dolls - Rhythm Disease 
DYEAR=1900
DGENRE=
TTITLE0=Red Hot Boogie Woogie
TTITLE1=Jivin' Me
TTITLE2=Bad Luck Streak
TTITLE3=Sometimes You Don't Know Me At All
TTITLE4=Woman Trouble
TTITLE5=She Don't Want You 
TTITLE6=The Last Thing On My Mind
TTITLE7=Lights Out
TTITLE8=No More Doggin'
TTITLE9=Hurrican Rag
TTITLE10=West Memphis Three
TTITLE11=Bam (Dickman's Theme)
EXTD=
EXTT0=
EXTT1=
EXTT2=
EXTT3=
EXTT4=
EXTT5=
EXTT6=
EXTT7=
EXTT8=
EXTT9=
EXTT10=
EXTT11=
PLAYORDER=
